<svg t="1650788861322" class="icon" viewBox="0 0 1178 1024" version="1.1" xmlns="http://www.w3.org/2000/svg" p-id="2015" width="200" height="200"><path d="M56.046362 400.89633h1066.199614c30.990341 0 56.046362-25.056021 56.046361-56.046362 0-17.143593-7.912428-32.968448-21.099806-43.518352-3.296845-4.615583-7.253059-7.912428-11.868642-11.209272L746.405666 10.549903c-25.056021-17.802962-60.002576-11.868641-77.805537 13.18738-17.802962 25.056021-11.868641 60.002576 13.187379 77.805537L949.491307 288.803606H56.046362c-30.990341 0-56.046362 25.056021-56.046362 56.046362s25.056021 56.046362 56.046362 56.046362z m1066.199614 222.866709H56.046362C25.056021 623.763039 0 648.81906 0 679.150032c0 17.143593 7.912428 32.968448 21.099807 43.518352 3.296845 3.956214 7.253059 7.912428 11.868641 11.209272l398.258854 279.572441c25.056021 17.802962 60.002576 11.868641 77.805538-13.846749 17.802962-25.056021 11.868641-60.002576-13.846749-77.805537l-267.04443-187.260786h893.444946c30.990341 0 56.046362-25.056021 56.046361-56.046362s-24.396652-54.727624-55.386992-54.727624z" p-id="2016"></path></svg>