<svg t="1658997169578" class="icon" viewBox="0 0 1024 1024" version="1.1" xmlns="http://www.w3.org/2000/svg" p-id="1309" width="200" height="200"><path d="M751.395322 376.624776c-17.083074 0.423649-31.104415 3.228531-48.695049 11.556197-59.57484 31.528064-112.941282 55.494918-116.255771 56.939827-1.02126 0.509606-2.207271 0.762363-3.399423 0.679475-72.574922-9.008164-145.148821-18.35709-217.723743-27.108405-11.133571-1.788739-20.054755 5.945409-26.345018 10.875698-7.137561 5.183046-14.021342 10.875698-20.98801 16.232706-10.962679 7.818059-4.418636 17.677615 2.037403 20.307512l115.576295 58.300824c7.817036 4.673439 3.058662 11.386328 0 13.5936l-61.525262 29.150924c-1.701758 0.679475-3.656273 0.679475-5.439896 0-25.241894-11.897981-58.296731-20.312628-79.118965-27.789926-12.066827-4.331655-24.560372-0.509606-31.784914 7.477298-3.651157 4.078899-6.03239 9.179057-6.7968 14.95869-0.593518 4.76042 1.443885 11.30344 5.439896 14.95562l69.599148 64.416102c7.987928 7.30743 18.358113 6.461155 26.345018 6.120394 17.419741-0.76748 27.959795-1.360997 44.956911-2.723018 8.838296-0.762363 18.779715-3.3984 28.04166-8.156774 128.406508-67.558675 368.480282-200.64067 368.480282-200.64067 18.526959-11.473309 21.75549-26.939559 13.515828-36.628222C798.047852 387.841236 777.570471 376.536772 751.395322 376.624776L751.395322 376.624776 751.395322 376.624776 751.395322 376.624776 751.395322 376.624776zM751.395322 376.624776" p-id="1310"></path><path d="M512.002047 76.893274c-240.331647 0-435.108772 194.777125-435.108772 435.108772 0 240.326531 194.777125 435.103656 435.108772 435.103656 240.326531 0 435.103656-194.777125 435.103656-435.103656C947.106726 271.670399 752.328577 76.893274 512.002047 76.893274L512.002047 76.893274zM512.002047 927.732469c-229.621724 0-415.735539-186.108698-415.735539-415.730423 0-229.621724 186.113815-415.735539 415.735539-415.735539 229.620701 0 415.730423 186.113815 415.730423 415.735539C927.732469 741.623771 741.623771 927.732469 512.002047 927.732469L512.002047 927.732469zM512.002047 927.732469" p-id="1311"></path></svg>